<svg width="64" height="64" viewBox="0 0 64 64" fill="none" xmlns="http://www.w3.org/2000/svg">
<path d="M26.6933 56.0267C26.6933 58.96 29.0667 61.3333 32 61.3333C34.9333 61.3333 37.3067 58.96 37.3067 56.0267H26.6933ZM50.3467 44.8533V29.3333C50.3467 20.6667 44.3467 13.4133 36.24 11.4933V9.57333C36.24 7.22666 34.3467 5.33333 32 5.33333C29.6533 5.33333 27.76 7.22666 27.76 9.57333V11.4933C19.6533 13.4133 13.6533 20.6667 13.6533 29.3333V44.8533L8 50.5067V53.3333H56V50.5067L50.3467 44.8533ZM42.6667 34.6933H34.6667V42.6933H29.3333V34.6933H21.3333V29.3333H29.3333V21.3333H34.6667V29.3333H42.6667V34.6933Z" fill="black"/>
</svg>
