<svg width="54" height="38" viewBox="0 0 54 38" fill="none" xmlns="http://www.w3.org/2000/svg">
<path d="M19 19C24.1467 19 28.3333 14.8133 28.3333 9.66668C28.3333 4.52001 24.1467 0.333344 19 0.333344C13.8533 0.333344 9.66667 4.52001 9.66667 9.66668C9.66667 14.8133 13.8533 19 19 19ZM19 5.66668C21.2133 5.66668 23 7.45334 23 9.66668C23 11.88 21.2133 13.6667 19 13.6667C16.7867 13.6667 15 11.88 15 9.66668C15 7.45334 16.7867 5.66668 19 5.66668ZM19.1333 32.3333H7.72C10.36 31 14.92 29.6667 19 29.6667C19.2933 29.6667 19.6133 29.6933 19.9067 29.6933C20.8133 27.7467 22.3867 26.1467 24.28 24.8667C22.3333 24.52 20.4933 24.3333 19 24.3333C12.76 24.3333 0.333336 27.4533 0.333336 33.6667V37.6667H19V33.6667C19 33.2133 19.0533 32.76 19.1333 32.3333ZM39 25.6667C34.0933 25.6667 24.3333 28.36 24.3333 33.6667V37.6667H53.6667V33.6667C53.6667 28.36 43.9067 25.6667 39 25.6667ZM42.2267 20.8133C44.2533 19.6667 45.6667 17.5067 45.6667 15C45.6667 11.32 42.68 8.33334 39 8.33334C35.32 8.33334 32.3333 11.32 32.3333 15C32.3333 17.5067 33.7467 19.6667 35.7733 20.8133C36.7333 21.3467 37.8267 21.6667 39 21.6667C40.1733 21.6667 41.2667 21.3467 42.2267 20.8133Z" fill="black"/>
</svg>
