<svg width="54" height="49" viewBox="0 0 54 49" fill="none" xmlns="http://www.w3.org/2000/svg">
<path d="M19 0.333328L14.12 5.66666H5.66667C2.73333 5.66666 0.333332 8.06666 0.333332 11V43C0.333332 45.9333 2.73333 48.3333 5.66667 48.3333H48.3333C51.2667 48.3333 53.6667 45.9333 53.6667 43V11C53.6667 8.06666 51.2667 5.66666 48.3333 5.66666H39.88L35 0.333328H19ZM27 40.3333C19.64 40.3333 13.6667 34.36 13.6667 27C13.6667 19.64 19.64 13.6667 27 13.6667C34.36 13.6667 40.3333 19.64 40.3333 27C40.3333 34.36 34.36 40.3333 27 40.3333Z" fill="black"/>
</svg>
