<svg width="64" height="64" viewBox="0 0 64 64" fill="none" xmlns="http://www.w3.org/2000/svg">
<path d="M26.6667 32C32.5577 32 37.3333 27.2244 37.3333 21.3333C37.3333 15.4423 32.5577 10.6667 26.6667 10.6667C20.7756 10.6667 16 15.4423 16 21.3333C16 27.2244 20.7756 32 26.6667 32Z" fill="black"/>
<path d="M28.4533 34.72C27.8667 34.6933 27.28 34.6667 26.6667 34.6667C20.2133 34.6667 14.1867 36.4533 9.04 39.52C6.69333 40.9067 5.33333 43.52 5.33333 46.2667V53.3333H30.0267C27.92 50.32 26.6667 46.64 26.6667 42.6667C26.6667 39.8133 27.3333 37.1467 28.4533 34.72Z" fill="black"/>
<path d="M55.3333 42.6667C55.3333 42.08 55.2533 41.5467 55.1733 40.9867L58.2133 38.2933L55.5467 33.68L51.68 34.9867C50.8267 34.2667 49.8667 33.7067 48.8 33.3067L48 29.3333H42.6667L41.8667 33.3067C40.8 33.7067 39.84 34.2667 38.9867 34.9867L35.12 33.68L32.4533 38.2933L35.4933 40.9867C35.4133 41.5467 35.3333 42.08 35.3333 42.6667C35.3333 43.2533 35.4133 43.7867 35.4933 44.3467L32.4533 47.04L35.12 51.6533L38.9867 50.3467C39.84 51.0667 40.8 51.6267 41.8667 52.0267L42.6667 56H48L48.8 52.0267C49.8667 51.6267 50.8267 51.0667 51.68 50.3467L55.5467 51.6533L58.2133 47.04L55.1733 44.3467C55.2533 43.7867 55.3333 43.2533 55.3333 42.6667ZM45.3333 48C42.4 48 40 45.6 40 42.6667C40 39.7333 42.4 37.3333 45.3333 37.3333C48.2667 37.3333 50.6667 39.7333 50.6667 42.6667C50.6667 45.6 48.2667 48 45.3333 48Z" fill="black"/>
</svg>
