<svg width="54" height="54" viewBox="0 0 54 54" fill="none" xmlns="http://www.w3.org/2000/svg">
<path d="M28.3333 21.6667C28.3333 17.2667 24.7333 13.6667 20.3333 13.6667C15.9333 13.6667 12.3333 17.2667 12.3333 21.6667C12.3333 26.0667 15.9333 29.6667 20.3333 29.6667C24.7333 29.6667 28.3333 26.0667 28.3333 21.6667ZM20.3333 24.3333C18.8667 24.3333 17.6667 23.1333 17.6667 21.6667C17.6667 20.2 18.8667 19 20.3333 19C21.8 19 23 20.2 23 21.6667C23 23.1333 21.8 24.3333 20.3333 24.3333ZM37.6667 29.6667C40.6267 29.6667 43 27.2933 43 24.3333C43 21.3733 40.6267 19 37.6667 19C34.7067 19 32.3067 21.3733 32.3333 24.3333C32.3333 27.2933 34.7067 29.6667 37.6667 29.6667ZM26.9733 0.359985C12.2533 0.359985 0.306667 12.3067 0.306667 27.0267C0.306667 41.7467 12.2533 53.6933 26.9733 53.6933C41.6933 53.6933 53.64 41.7467 53.64 27.0267C53.64 12.3067 41.6933 0.359985 26.9733 0.359985V0.359985ZM10.5733 40.6533C12.3867 39.2133 16.6267 37.6933 20.3333 37.6933C20.52 37.6933 20.7333 37.72 20.9467 37.72C21.5867 36.0133 22.7333 34.28 24.4133 32.76C22.92 32.4933 21.5067 32.3333 20.3333 32.3333C16.8667 32.3333 11.2933 33.5333 7.72 36.1467C6.38667 33.3733 5.64 30.28 5.64 27C5.64 15.24 15.2133 5.66665 26.9733 5.66665C38.7333 5.66665 48.3067 15.24 48.3067 27C48.3067 30.2 47.5867 33.24 46.3067 35.9867C43.64 34.4133 40.0133 33.6667 37.6667 33.6667C33.6133 33.6667 25.6667 35.8267 25.6667 40.8667V48.28C19.6133 47.9333 14.2267 45.0533 10.5733 40.6533V40.6533Z" fill="black"/>
</svg>
